<?xml version="1.0" encoding="utf-8"?><svg viewBox="0 0 110 65" xmlns="http://www.w3.org/2000/svg" xmlns:xlink="http://www.w3.org/1999/xlink"><style>:root>svg{display:none}:root>svg:target{display:block}</style><svg viewBox="0 0 51 41" id="1" xmlns="http://www.w3.org/2000/svg"><path d="M47.86 12.219h-.829V8.906a2.482 2.482 0 00-3.312-2.342V3.11A2.487 2.487 0 0041.234.625h-1.656a2.487 2.487 0 00-2.484 2.484v9.11h-2.627a2.482 2.482 0 00-3.258-1.48 2.482 2.482 0 00-3.312-1.657 2.482 2.482 0 00-4.053-1.197 2.483 2.483 0 00-4.14 1.85v.828h-.829a2.489 2.489 0 00-2.342 1.656h-2.627v-9.11A2.487 2.487 0 0011.422.625H9.766A2.487 2.487 0 007.28 3.109v3.455A2.484 2.484 0 003.97 8.906v3.313H3.14a2.487 2.487 0 00-2.485 2.484v1.656a2.487 2.487 0 002.485 2.485h.828v3.312a2.484 2.484 0 003.312 2.342v3.455a2.487 2.487 0 002.485 2.485h1.656a2.487 2.487 0 002.484-2.485v-9.11h2.485v2.485c0 .164.048.323.139.46l3.173 4.76v12.999a.828.828 0 00.828.828h11.594a.828.828 0 00.828-.828V26.43l1.614-4.84a.828.828 0 00.042-.263v-2.484h2.485v9.11a2.487 2.487 0 002.484 2.483h1.656a2.487 2.487 0 002.485-2.484v-3.455a2.483 2.483 0 003.312-2.342v-3.312h.828a2.488 2.488 0 002.485-2.485v-1.656a2.488 2.488 0 00-2.485-2.484zm-15.735 0a.828.828 0 01.828.828v3.312a.828.828 0 11-1.656 0v-3.312a.828.828 0 01.828-.828zm-3.313-1.656a.829.829 0 01.829.828v4.968a.828.828 0 11-1.657 0v-4.968a.829.829 0 01.828-.829zM25.5 8.905a.829.829 0 01.828.828v6.625a.828.828 0 11-1.656 0V9.734a.829.829 0 01.828-.828zm-2.484 7.453a.828.828 0 11-1.657 0v-.828h.828c.283 0 .563-.048.829-.142v.97zm-1.657-6.625a.828.828 0 111.657 0v.829h-1.657v-.829zM3.141 17.188a.83.83 0 01-.829-.829v-1.656a.83.83 0 01.829-.828h.828v3.313H3.14zm3.312 5.796a.83.83 0 01-.828-.828V8.906a.828.828 0 011.656 0v13.25a.83.83 0 01-.828.828zm5.797 4.97a.829.829 0 01-.828.827H9.766a.829.829 0 01-.829-.828V3.11a.83.83 0 01.829-.828h1.656a.83.83 0 01.828.828v24.844zm1.656-10.767v-3.312h2.485v3.313h-2.485zm19.047 4.007l-1.614 4.841a.83.83 0 00-.042.262v12.422h-9.938V28.78h2.485a.828.828 0 100-1.656h-2.485v-.828a.828.828 0 00-.139-.46l-3.173-4.76v-8.03a.828.828 0 01.828-.828h4.14v.828a.829.829 0 01-.828.828h-1.656a.828.828 0 00-.828.828v3.313a.828.828 0 00.828.828 4.145 4.145 0 014.14 4.14.828.828 0 101.657 0 5.779 5.779 0 00-1.745-4.14h8.37v2.35zm1.514-4.006c.094-.266.142-.546.142-.829v-2.484h2.485v3.313h-2.627zm7.596 10.765a.829.829 0 01-.829.828h-1.656a.829.829 0 01-.828-.828V3.11a.83.83 0 01.828-.828h1.656a.83.83 0 01.828.828v24.844zm3.312-5.797a.828.828 0 11-1.656 0V8.906a.828.828 0 111.656 0v13.25zm3.313-5.797a.83.83 0 01-.829.828h-.828v-3.312h.828a.83.83 0 01.828.828v1.656z"/></svg><svg viewBox="0 0 49 50" id="2" xmlns="http://www.w3.org/2000/svg"><path d="M47.926 44.586L43.5 42.373V29.469a6.914 6.914 0 00-6.906-6.907H22.81l-.032-.047a5.352 5.352 0 00-3.653-2.326V3.062A2.44 2.44 0 0016.687.626h-1.625a.813.813 0 00-.77.556l-.517 1.548-.787-.393a.813.813 0 00-1.09.363l-.812 1.625a.812.812 0 00.05.814l1.458 2.186-2.045 16.36a4.047 4.047 0 00-2.799-1.122H4.5a4.06 4.06 0 00-2.506 7.257l-.45.901a2.784 2.784 0 002.165 4.01 9.347 9.347 0 007.697 14.645h4.875a9.34 9.34 0 005.26-17.063h13.965l2.306 13.071v2.367a.812.812 0 00.813.813h8.938a.812.812 0 00.812-.813v-2.438a.812.812 0 00-.45-.726zM32.937 24.188v6.5h-7.312v-6.5h7.313zM12.988 4.152l.899.449a.812.812 0 001.134-.47l.627-1.882h1.04a.813.813 0 01.812.813v13.812h-4.462l1.206-9.65a.812.812 0 00-.13-.55L12.75 4.628l.238-.476zM5.312 24.188H7.75a2.438 2.438 0 010 4.875h-.813v-.813a.813.813 0 00-.237-.575l-1.388-1.387v-2.1zm-1.625.14v2.297c0 .215.086.422.238.575l1.387 1.387v.476H4.5a2.437 2.437 0 01-.813-4.736zm-.812 7.637c0-.18.042-.357.122-.518l.45-.899c.343.093.697.14 1.053.14h4.062A2.44 2.44 0 0111 33.124v1.534a9.072 9.072 0 00-5.072-1.534H4.034a1.16 1.16 0 01-1.159-1.16zM24 40.032a7.728 7.728 0 01-7.719 7.719h-4.875a7.717 7.717 0 01-5.627-13h.149a7.46 7.46 0 015.31 2.2.813.813 0 001.387-.575v-3.25c0-.429-.068-.855-.202-1.262a9.15 9.15 0 002.837.45h1.021A7.728 7.728 0 0124 40.03zm-8.74-9.343a7.453 7.453 0 01-4.416-1.435c.611-.716.953-1.623.967-2.564l1.024-8.189H17.5V25h1.625v-3.16a3.732 3.732 0 012.301 1.576l.273.41a.813.813 0 00.676.361H24v6.5h-8.74zm20.927 0h-1.624v-6.5h2.03a5.287 5.287 0 015.282 5.28v12.947l-2.655 1.593-2.232-12.65a.813.813 0 00-.8-.67zm10.563 16.25h-7.313v-1.166l3.286-1.97 4.027 2.013v1.123z"/></svg><svg fill="none" viewBox="0 0 35 53" id="3" xmlns="http://www.w3.org/2000/svg"><path d="M25.53 0c-1.45 0-2.813.565-3.838 1.59L17.5 5.782 13.308 1.59A5.391 5.391 0 009.47 0a5.433 5.433 0 00-5.427 5.427v23.435l-1.607-.803a1.035 1.035 0 00-1.498.925v22.98C.938 52.537 1.4 53 1.972 53h6.21c.572 0 1.036-.464 1.036-1.035V32.09c0-.392-.222-.75-.572-.926l-2.534-1.267V5.427A3.36 3.36 0 019.47 2.07c.897 0 1.74.35 2.374.984l4.192 4.192-3.66 3.66a7.198 7.198 0 00-2.122 5.123v.534c0 3.995 3.25 7.246 7.246 7.246 3.995 0 7.246-3.251 7.246-7.247v-.533a7.198 7.198 0 00-2.122-5.123l-3.66-3.66 4.192-4.192a3.334 3.334 0 012.374-.984 3.36 3.36 0 013.357 3.357v24.47l-2.534 1.267c-.35.175-.572.534-.572.926v19.875c0 .571.464 1.035 1.035 1.035h6.211c.572 0 1.035-.464 1.035-1.035v-6.832a1.035 1.035 0 00-2.07 0v5.797h-4.14v-18.2l4.14-2.07v5.156a1.035 1.035 0 002.07 0v-6.832a1.035 1.035 0 00-1.498-.926l-1.607.804V5.427A5.433 5.433 0 0025.53 0zM7.148 50.93h-4.14V30.66l4.14 2.07v18.2zm15.528-34.9v.532a5.182 5.182 0 01-5.176 5.176 5.182 5.182 0 01-5.176-5.175v-.534a5.14 5.14 0 011.516-3.659l3.66-3.66 3.66 3.66a5.14 5.14 0 011.516 3.66z" fill="#FF2625" fill-opacity=".2"/></svg><svg viewBox="0 0 42 50" id="4" xmlns="http://www.w3.org/2000/svg"><path fill-rule="evenodd" clip-rule="evenodd" d="M41.007 26.403c-.43-2.507-1.41-4.817-2.495-6.968l-.009-.017c-.447-.886-.912-1.744-1.364-2.578-1.473-2.72-2.864-5.288-2.972-7.624-.248-5.316 2.05-7.415 2.142-7.495a.964.964 0 00.294-1.079.98.98 0 00-.927-.642H6.406a.982.982 0 00-.93.64.957.957 0 00.29 1.074c.098.087 2.397 2.186 2.15 7.501-.109 2.337-1.5 4.905-2.973 7.625a99.592 99.592 0 00-1.364 2.578l-.009.017C2.416 21.722 1.383 24.189 1 26.881a15.219 15.219 0 00-.125 3.154c.119 1.804.427 3.845.915 6.066a.977.977 0 001.908-.42c-.468-2.125-.761-4.068-.873-5.774-.022-.33-.03-.656-.026-.98l13.884 10.67c.933.717 2.117 1.162 3.382 1.28v7.17H7.612A87.497 87.497 0 015.787 43.1a.976.976 0 00-1.852.621c1.11 3.31 2.085 5.592 2.126 5.687a.977.977 0 00.897.592h28.166c.39 0 .744-.233.897-.592.19-.44 4.629-10.882 5.186-19.373a15.383 15.383 0 00-.2-3.632zM9.867 9.306c.165-3.54-.696-5.92-1.51-7.352h25.369c-.815 1.431-1.675 3.812-1.51 7.352.129 2.784 1.624 5.543 3.206 8.464.33.608.66 1.22.983 1.837-3.55 2.603-9.214 4.14-15.364 4.14S9.227 22.21 5.677 19.608c.323-.617.654-1.229.983-1.837 1.583-2.921 3.077-5.68 3.207-8.464zM3.014 26.631c.326-1.833.986-3.572 1.78-5.256 3.894 2.724 9.85 4.326 16.247 4.326s12.354-1.602 16.247-4.326c.728 1.544 1.343 3.133 1.69 4.799L23.41 38.137c-1.47 1.129-4.005 1.088-5.537-.089L3.014 26.631zm36.244 3.276c-.462 7.039-3.843 15.807-4.787 18.14H22.018v-7.25c.97-.177 1.858-.555 2.581-1.111l14.67-11.272c.023.49.022.987-.011 1.493z"/></svg><svg fill="none" viewBox="0 0 44 56" id="6" xmlns="http://www.w3.org/2000/svg"><path d="M9.443 37.063h8.289l-7.397 13.149a.906.906 0 00-.116.444v3.625a.907.907 0 00.906.907h20.844a.905.905 0 00.906-.907V52.47a.906.906 0 00-.457-.787l-5.566-3.18 6.89-12.402a6.777 6.777 0 00-5.586-10.059l-13.871-.694 1.935-2.903 13.149-3.506h9.85a.906.906 0 00.544-.182l3.625-2.718a.907.907 0 00.362-.726V13.5a.907.907 0 00-.906-.906H20.185c.59-.784.91-1.738.909-2.719V4.437a3.624 3.624 0 00-5.8-2.9l-2.9 2.176a.907.907 0 00-.363.724v5.438a4.508 4.508 0 00.909 2.719h-1.728a4.532 4.532 0 00-3.726 1.952l-5.602 8.091a9.193 9.193 0 007.559 14.425zm10.62-1.364a.906.906 0 00-.782-.449h-5.855l2.898-6.522 8.002 1.334a3.723 3.723 0 012.39 5.874l-8.878 12.108-4.892 1.223L20.071 36.6a.905.905 0 00-.008-.901zm3.75 17.676H12.03v-2.011l6.21-1.553 5.572 3.184v.38zm7.25-.38v.38h-5.438v-.906a.906.906 0 00-.457-.787l-2.086-1.192 2.421-.672 5.56 3.177zm.885-22.94a4.945 4.945 0 01.209 5.165l-7.14 12.852-4.151 1.151-1.16-.662 8.472-11.553a5.534 5.534 0 00-3.554-8.734l-5.096-.85 8.537.427a4.984 4.984 0 013.883 2.205zm9.99-15.196l-3.021 2.266H36.5l1.45-1.087a.907.907 0 00.362-.726v-.906h3.626v.453zm-5.438-.453v.453l-3.02 2.266h-4.23a.907.907 0 00-.234.03l-7.922 2.113v-4.862H36.5zM16.381 2.987a1.813 1.813 0 012.9 1.45v.907h-2.718a.906.906 0 00-.641.265l-1.547 1.547h-.531V4.891l2.537-1.904zm-2.537 6.888v-.906h.906a.906.906 0 00.64-.266l1.548-1.547h2.343v2.719a2.718 2.718 0 11-5.437 0zm-4.867 5.703a2.72 2.72 0 012.235-1.172h8.07v5.346l-3.86 1.029a.907.907 0 00-.52.373l-3.262 4.894-8.335-2.274.07-.105 5.601-8.091zm-6.5 9.85l9.316 2.54v-.001c.03.008.06.015.09.02l2.595.433-3.036 6.83h-2a7.384 7.384 0 01-6.965-9.823z" fill="#FF2625" fill-opacity=".2"/></svg><svg fill="none" viewBox="0 0 36 58" id="7" xmlns="http://www.w3.org/2000/svg"><path d="M35.772 49.353a.937.937 0 00-.478-.567l-3.364-1.682-.546-2.184a10.842 10.842 0 00-5.999-7.212l-.019-.093a32.254 32.254 0 00-2.64-7.818 6.685 6.685 0 00-3.874-7.084l-.326-2.288 3.887-3.887a.935.935 0 00-.118-1.426l-5.421-3.872a2.982 2.982 0 00-1.05-1.369l-.358-1.434.012.008.305.204a5.52 5.52 0 001.99.824l3.793.759a.938.938 0 00.847-1.582l-1-1a7.51 7.51 0 01-2.06-3.849 3.049 3.049 0 00-4.728-1.907A3.743 3.743 0 0012.054.875h-.617a3.755 3.755 0 00-3.746 3.587l-.893 2.679a.938.938 0 00.89 1.234h.358l.678 1.357a.937.937 0 00.838.518h.99a4.285 4.285 0 00-.887.968l-1.282 1.923a3.758 3.758 0 00-.618 1.796H6.75a.937.937 0 00-.71-.909l-3.75-.938a.937.937 0 00-1.137.683l-.938 3.75a.938.938 0 00.613 1.116l2.813.938a.94.94 0 00.296.048h.807l6.284 1.796.41 2.047v2.28l-1.089.907a33.128 33.128 0 00-7.215 8.425.938.938 0 00.012.986l6.235 9.797-2.248 3.373a4.56 4.56 0 00-.284 4.558.938.938 0 001.294.4l8.437-4.687a.937.937 0 00.208-1.482l-3.53-3.53-.892-6.253a.937.937 0 00-.266-.53l-1.892-1.893 5.239-2.62 4.54 8.433c.052.097.12.183.203.256l8.035 7.143-.744 3.72a3.946 3.946 0 00-1.981 3.437.938.938 0 00.937.937h4.688a.937.937 0 00.814-.472l3.75-6.563a.936.936 0 00.083-.737zM13.144 22.437l-.188-.937h1.294a.937.937 0 00.91-.71l.97-3.88.789 5.527h-3.776zm5.05-4.332l-.575-4.029 2.686 1.919-2.11 2.11zM16.991 3.406a1.165 1.165 0 01.524.763 9.377 9.377 0 001.595 3.66l-.97-.194a3.654 3.654 0 01-1.317-.546l-.305-.204a3.003 3.003 0 01-.775-.752c.164-.8.147-1.626-.05-2.418a3.78 3.78 0 00-.067-.23 1.17 1.17 0 011.365-.079zm-4.937-.656a1.872 1.872 0 011.819 1.42 3.576 3.576 0 01-.02 1.809 11.822 11.822 0 01-2.732-3.2c.104-.019.21-.028.316-.029h.617zm.303 6.379a.937.937 0 00-.92-.754h-1.295l-.679-1.357a.937.937 0 00-.496-.454l.547-1.643a.938.938 0 00.048-.296c0-.212.037-.422.108-.621a13.693 13.693 0 003.756 4.004l.332 1.326-.059.007a4.122 4.122 0 00-1.29.05l-.052-.262zM9.943 14.18l1.102-1.652-.402 2.409H9.65c.041-.271.141-.53.293-.757zM4.875 17.75H4.09l-1.845-.615.5-1.998 2.13.532v.206a.938.938 0 00.937.938h5.237l.663.662 1.326-1.326-.597-.596.576-3.452a1.092 1.092 0 012.17.18v.532c0 .089-.01.178-.032.265l-1.637 6.547h-1.95l-6.436-1.839a.939.939 0 00-.257-.036zm3.38 34.238a2.679 2.679 0 01.438-1.712l2.449-3.674 1.048-.524 2.393 2.393-6.329 3.517zm6.82-23.433l-1.65.89 1.132 2.103-6.351 3.176a.937.937 0 00-.244 1.501l2.592 2.592.797 5.584-.514.257-5.794-9.105a31.248 31.248 0 016.507-7.457l1.425-1.188a.937.937 0 00.337-.72v-1.875h4.507l.082.032a4.81 4.81 0 012.93 5.409.939.939 0 00.08.603 30.376 30.376 0 012.617 7.626l.115.576a.938.938 0 00.571.686 8.96 8.96 0 015.35 6.13l.47 1.873-.636.317-7.839-6.968-6.484-12.042zM30.581 55.25h-2.987c.203-.406.533-.736.94-.938l.198-.098a.937.937 0 00.5-.655l.847-4.238 1.046-.523 2.444 1.222-2.988 5.23z" fill="#FF2625" fill-opacity=".2"/></svg><svg fill="none" viewBox="0 0 110 57" id="8" xmlns="http://www.w3.org/2000/svg"><g opacity=".4" fill="#4E7D96"><path opacity=".6" d="M12.1 46.41c-2.7 0-4.9-2.2-4.9-4.9v-26.5c0-2.7 2.2-4.9 4.9-4.9s4.9 2.2 4.9 4.9v26.4c0 2.8-2.2 5-4.9 5zM23.4 56.21c-2.7 0-4.9-2.2-4.9-4.9V5.21c0-2.7 2.2-4.9 4.9-4.9s4.9 2.2 4.9 4.9v46.1c0 2.7-2.2 4.9-4.9 4.9zM5.4 23.31c-2.7 0-4.9 2.2-4.9 4.9s2.2 4.9 4.9 4.9v-9.8zM98.1 10.11c2.7 0 4.9 2.2 4.9 4.9v26.4c0 2.7-2.2 4.9-4.9 4.9s-4.9-2.2-4.9-4.9v-26.4c0-2.7 2.2-4.9 4.9-4.9zM86.8.31c2.7 0 4.9 2.2 4.9 4.9v46.1c0 2.7-2.2 4.9-4.9 4.9s-4.9-2.2-4.9-4.9V5.21c0-2.7 2.2-4.9 4.9-4.9zM80.408 33.156v-9.8h-50.6v9.8h50.6zM104.7 33.21c2.7 0 4.9-2.2 4.9-4.9s-2.2-4.9-4.9-4.9v9.8z"/></g></svg><svg fill="none" viewBox="0 0 45 63" id="Vector" xmlns="http://www.w3.org/2000/svg"><path d="M41.531 4.922l-11.96.003L28.248.61A.86.86 0 0027.426 0h-9.852a.861.861 0 00-.823.609l-1.323 4.316-11.96-.003A3.326 3.326 0 00.147 8.244v51.434A3.326 3.326 0 003.47 63H41.53a3.326 3.326 0 003.323-3.322V8.244a3.326 3.326 0 00-3.323-3.322zm-3.322 6.644v44.79H6.79v-44.79H38.21zM16.064 6.648a.861.861 0 00.825-.608l1.322-4.317h8.578l1.322 4.317a.86.86 0 00.823.608l4.064-.002v3.198H12v-3.2l4.064.004zm27.067 53.03a1.602 1.602 0 01-1.6 1.6H3.47a1.602 1.602 0 01-1.6-1.6V8.244a1.602 1.602 0 011.6-1.6h6.809v3.2H5.93a.861.861 0 00-.861.861v46.512a.861.861 0 00.861.861h33.14a.861.861 0 00.861-.861V10.705a.862.862 0 00-.861-.861h-4.348v-3.2h6.81a1.602 1.602 0 011.6 1.6v51.434z" fill="#FF2625"/></svg><svg fill="none" viewBox="0 0 68 64" id="Vector-1" xmlns="http://www.w3.org/2000/svg"><mask id="aia" fill="#fff"><path d="M67.204 59.16l-5.144-3.086-1.768-16.792a6.744 6.744 0 00-5.248-5.883l-15.419-3.427v-4.256l.727-.727a5.199 5.199 0 000-7.353l-2.72-2.72a5.614 5.614 0 001.993-4.291v-4.5a5.622 5.622 0 00-10.048-3.47l-1.248-.623A3.855 3.855 0 0022.75 5.48v2.622a10.33 10.33 0 01-3.046 7.352 1.124 1.124 0 00.796 1.921h3.375a6.75 6.75 0 005.75-3.22c.293.362.628.687 1 .966-.42.314-.791.685-1.105 1.103L25.788 21.2a9.563 9.563 0 000 11.475l.337.45v4.317L21.939 50H1.375A1.125 1.125 0 00.25 51.125v11.25A1.125 1.125 0 001.375 63.5h2.25a1.125 1.125 0 00.965-.546l3.006-5.01 17.01 1.79a6.751 6.751 0 006.567-3.364l6.855-11.995h13.05l3.172 15.861v2.139a1.125 1.125 0 001.125 1.125h11.25a1.125 1.125 0 001.125-1.125v-2.25a1.125 1.125 0 00-.546-.965zM39.625 21.313a2.932 2.932 0 01-.864 2.085l-1.056 1.056c-.212.212-.33.498-.33.796v4.5h-3.242l-1.074-2.147 4.597-6.435a4.504 4.504 0 00.824-2.222l.281.281a2.93 2.93 0 01.864 2.085zM34 2.75A3.38 3.38 0 0137.181 5H34c-.298 0-.584.119-.795.33l-1.921 1.92h-.659V6.125A3.379 3.379 0 0134 2.75zM23.875 15.125h-1A12.56 12.56 0 0025 8.102V5.48a1.606 1.606 0 012.323-1.436l1.245.623a5.61 5.61 0 00-.193 1.458v4.5a4.505 4.505 0 01-4.5 4.5zm6.75-5.625h1.125c.298 0 .584-.119.795-.33l1.921-1.92h2.909v3.375a3.375 3.375 0 01-6.75 0V9.5zm-3.037 13.05l3.732-4.976a3.326 3.326 0 012.647-1.324 2.283 2.283 0 011.858 3.61l-4.99 6.986a1.125 1.125 0 00-.091 1.157l3.375 6.75c.133.267.367.47.65.564l3.123 1.041.364.364-.451.903h-5.492l-4.725-6.3a7.312 7.312 0 010-8.775zm3.262 16.875a1.125 1.125 0 00.9.45h6.75a1.125 1.125 0 001.006-.622l1.125-2.25a1.125 1.125 0 00-.21-1.298l-1.125-1.125a1.127 1.127 0 00-.44-.272l-2.933-.978-.665-1.33h3.118l7.999 1.778v8.347h-13.5a4.505 4.505 0 01-4.5-4.5v-1.5l2.475 3.3zM2.988 61.25H2.5v-9h2.453l.859 4.294-2.824 4.706zm26.232-5.996a4.501 4.501 0 01-4.378 2.243L7.94 55.717l-.694-3.467H22.75a1.125 1.125 0 001.067-.77l1.037-3.108 6.454 3.227-2.088 3.655zm3.206-5.611l-6.854-3.427 1.641-4.923a6.749 6.749 0 005.662 3.082h2.561l-3.01 5.268zm20.677-6.614A1.124 1.124 0 0052 42.125h-3.375v-7.847l5.93 1.317a4.496 4.496 0 013.5 3.922l1.751 16.637-3.64 2.185-3.063-15.31zM65.5 61.25h-9v-.488l4.5-2.7 4.5 2.7v.488z"/></mask><path d="M67.204 59.16l-5.144-3.086-1.768-16.792a6.744 6.744 0 00-5.248-5.883l-15.419-3.427v-4.256l.727-.727a5.199 5.199 0 000-7.353l-2.72-2.72a5.614 5.614 0 001.993-4.291v-4.5a5.622 5.622 0 00-10.048-3.47l-1.248-.623A3.855 3.855 0 0022.75 5.48v2.622a10.33 10.33 0 01-3.046 7.352 1.124 1.124 0 00.796 1.921h3.375a6.75 6.75 0 005.75-3.22c.293.362.628.687 1 .966-.42.314-.791.685-1.105 1.103L25.788 21.2a9.563 9.563 0 000 11.475l.337.45v4.317L21.939 50H1.375A1.125 1.125 0 00.25 51.125v11.25A1.125 1.125 0 001.375 63.5h2.25a1.125 1.125 0 00.965-.546l3.006-5.01 17.01 1.79a6.751 6.751 0 006.567-3.364l6.855-11.995h13.05l3.172 15.861v2.139a1.125 1.125 0 001.125 1.125h11.25a1.125 1.125 0 001.125-1.125v-2.25a1.125 1.125 0 00-.546-.965zM39.625 21.313a2.932 2.932 0 01-.864 2.085l-1.056 1.056c-.212.212-.33.498-.33.796v4.5h-3.242l-1.074-2.147 4.597-6.435v0a4.504 4.504 0 00.824-2.222l.281.281a2.93 2.93 0 01.864 2.085zM34 2.75A3.38 3.38 0 0137.181 5H34c-.298 0-.584.119-.795.33l-1.921 1.92h-.659V6.125A3.379 3.379 0 0134 2.75zM23.875 15.125h-1A12.56 12.56 0 0025 8.102V5.48a1.606 1.606 0 012.323-1.436l1.245.623a5.61 5.61 0 00-.193 1.458v4.5a4.505 4.505 0 01-4.5 4.5zm6.75-5.625h1.125c.298 0 .584-.119.795-.33l1.921-1.92h2.909v3.375a3.375 3.375 0 01-6.75 0V9.5zm-3.037 13.05l3.732-4.976a3.326 3.326 0 012.647-1.324 2.283 2.283 0 011.858 3.61l-4.99 6.986a1.125 1.125 0 00-.091 1.157l3.375 6.75c.133.267.367.47.65.564l3.123 1.041.364.364-.451.903h-5.492l-4.725-6.3a7.312 7.312 0 010-8.775zm3.262 16.875a1.125 1.125 0 00.9.45h6.75a1.125 1.125 0 001.006-.622l1.125-2.25a1.125 1.125 0 00-.21-1.298l-1.125-1.125a1.127 1.127 0 00-.44-.272l-2.933-.978-.665-1.33h3.118l7.999 1.778v8.347h-13.5a4.505 4.505 0 01-4.5-4.5v-1.5l2.475 3.3zM2.988 61.25H2.5v-9h2.453l.859 4.294-2.824 4.706zm26.232-5.996a4.501 4.501 0 01-4.378 2.243L7.94 55.717l-.694-3.467H22.75a1.125 1.125 0 001.067-.77l1.037-3.108 6.454 3.227-2.088 3.655zm3.206-5.611l-6.854-3.427 1.641-4.923a6.749 6.749 0 005.662 3.082h2.561l-3.01 5.268zm20.677-6.614A1.124 1.124 0 0052 42.125h-3.375v-7.847l5.93 1.317a4.496 4.496 0 013.5 3.922l1.751 16.637-3.64 2.185-3.063-15.31zM65.5 61.25h-9v-.488l4.5-2.7 4.5 2.7v.488z" fill="#FF2625" stroke="#fff" stroke-width=".2" mask="url(#aia)"/></svg><svg viewBox="0 0 63 63" id="Vector-2" xmlns="http://www.w3.org/2000/svg"><path d="M62.95 50.697l-1.136-4.343a2.37 2.37 0 00-2.013-1.762l-4.05-.498a.429.429 0 01-.262-.135l-6.161-6.684a.667.667 0 01-.17-.353l-1.269-8.228a.916.916 0 10-1.81.28l1.268 8.227c.076.494.296.949.634 1.316l6.16 6.684c.363.393.855.646 1.386.711l4.05.499a.547.547 0 01.465.406l.98 3.746-5.863-2.448a6.833 6.833 0 01-1.212-.657l-8.776-5.982a1.285 1.285 0 01-.509-.699L41.43 29.754a7.866 7.866 0 00.449-2.617s-.002-6.652-.005-6.708c.34.149.665.332.966.55l.504.366a5.236 5.236 0 012.086 3.418c.169 1.18 2.009.89 1.81-.28a7.08 7.08 0 00-2.82-4.621l-.504-.366a7.055 7.055 0 00-3.039-1.252 3.264 3.264 0 00-2.274-.921h-2.484v-1.931-.009a6.4 6.4 0 001.059-1.604c.832-.26 1.598-.937 2.088-1.873.383-.733.544-1.54.454-2.27-.104-.844-.54-1.525-1.199-1.869a2.095 2.095 0 00-.76-.227V4.912A4.368 4.368 0 0033.397.55h-3.746a4.368 4.368 0 00-4.362 4.363V7.535a2.1 2.1 0 00-.809.232c-.658.344-1.095 1.025-1.199 1.869-.09.73.072 1.537.455 2.27.494.946 1.293 1.636 2.142 1.886a6.41 6.41 0 001.005 1.537v1.994h-2.485c-.883 0-1.684.351-2.274.921a7.056 7.056 0 00-3.038 1.252l-.504.366a7.08 7.08 0 00-2.822 4.621l-1.918 12.44a.67.67 0 01-.17.352l-6.16 6.685a.428.428 0 01-.263.134l-4.05.498a2.37 2.37 0 00-2.013 1.762L.051 50.697a1.515 1.515 0 00.34 1.405 5.41 5.41 0 00-.351 1.914 5.423 5.423 0 005.417 5.417h6.283c-.23.5-.294 1.072-.163 1.621.232 1.09 1.532 1.72 2.53 1.224l3.511-1.637a7.262 7.262 0 012.472-.658l6.529-.55h30.925a5.423 5.423 0 005.417-5.417c0-.657-.122-1.304-.353-1.913.343-.38.474-.902.342-1.406zM44.139 42.99l2.971 2.025a38.083 38.083 0 00-5.204-.359l-.038.002-.339-.56a13.11 13.11 0 01-1.894-6.788v-1.975c0-1.069.21-2.124.61-3.108l2.66 9.066c.202.69.64 1.292 1.234 1.697zM28.714 17.1a4.377 4.377 0 005.572.04v1.571c0 .735-.598 1.333-1.333 1.333h-2.906a1.335 1.335 0 01-1.332-1.333V17.1zm.937-14.719h3.746a2.534 2.534 0 012.53 2.531v.039h-8.806v-.039a2.534 2.534 0 012.53-2.53zm-4.291 8.676c-.21-.4-.305-.837-.26-1.197.024-.487.38-.598.705-.407a.916.916 0 001.316-.824V6.783h8.807v1.823a.916.916 0 001.295.834c.313-.177.655-.05.678.42.044.36-.05.796-.26 1.197-.33.634-.844.986-1.18 1.007a.916.916 0 00-.805.602 4.546 4.546 0 01-1.125 1.726l-1.237 1.183c-.992.949-2.547.949-3.54 0l-1.236-1.183a4.546 4.546 0 01-1.125-1.726.916.916 0 00-.836-.603c-.339-.01-.859-.358-1.197-1.006zm-.962 8.098h2.516a3.17 3.17 0 003.133 2.721h2.906a3.17 3.17 0 003.133-2.721h2.516c.796 0 1.443.647 1.443 1.443v6.54c0 1.079-.29 2.14-.84 3.07a10.081 10.081 0 00-1.402 5.127v1.975c0 2.728.747 5.403 2.159 7.736l.34.561-1.202.172a53.55 53.55 0 01-15.2 0l-1.2-.172.339-.56a14.94 14.94 0 002.158-7.737v-1.975a10.08 10.08 0 00-1.402-5.128c-.55-.929-.84-1.99-.84-3.07v-6.539c0-.796.647-1.443 1.443-1.443zm-2.927 24.943l-.339.56-.037-.002c-1.743 0-3.484.123-5.208.361l2.975-2.028a3.121 3.121 0 001.234-1.696l2.66-9.066c.4.983.61 2.039.61 3.108v1.975c0 2.393-.656 4.74-1.895 6.788zM2.96 46.818a.546.546 0 01.464-.407l4.05-.498A2.261 2.261 0 008.86 45.2l6.16-6.684c.339-.367.558-.822.634-1.315l1.918-12.44a5.236 5.236 0 012.087-3.417l.504-.366c.3-.218.626-.401.965-.55-.002.056-.004 6.709-.004 6.709 0 .894.154 1.779.449 2.616l-3.234 11.023a1.286 1.286 0 01-.508.699l-8.777 5.982c-.38.259-.787.48-1.212.657L1.98 50.563l.98-3.746zm-1.087 7.198c0-.549.127-1.086.367-1.576l5.604-2.34 3.095-.168a27.46 27.46 0 017.555.64c.154.028.993.246 1.133.234a.916.916 0 00.201-1.81l-.928-.21a29.293 29.293 0 00-7.504-.707l.647-.441a36.256 36.256 0 018.744-1.147l.007.018c.215.454.64.768 1.137.839l1.71.245a55.407 55.407 0 0015.72 0l1.71-.245a1.488 1.488 0 001.137-.838l.007-.02a36.27 36.27 0 018.744 1.148l.647.44c-2.52-.087-5.042.15-7.503.708L31.5 51.644l-4.242-.962a3.374 3.374 0 00-4.12.645l-1.62 1.748c-.168.18-.378.319-.61.402l-3.916 1.404a5.994 5.994 0 00-2.138 1.324L13.397 57.6h-7.94a3.589 3.589 0 01-3.585-3.585zm18.065 4.142a9.09 9.09 0 00-3.093.822l-3.49 1.627a.668.668 0 01.192-.612l2.575-2.468c.43-.41.93-.721 1.49-.922l3.915-1.403a3.385 3.385 0 001.335-.882l1.62-1.747c.525-.572 1.394-.643 2.024-.21l1.45.907c.43.268.894.481 1.378.633l.062.02v3.437l-9.458.797zm37.606-.557H31.228v-4.016l13.28-3.012a27.452 27.452 0 017.555-.64s3.04.16 3.075.159l5.625 2.349c.24.49.367 1.027.367 1.575a3.589 3.589 0 01-3.585 3.585z"/></svg><svg fill="none" viewBox="0 0 57 65" id="Vector-3" xmlns="http://www.w3.org/2000/svg"><path d="M5.469 1.094H1.28A1.047 1.047 0 00.234 2.14v7.328a1.047 1.047 0 001.047 1.047H5.47a1.047 1.047 0 001.047-1.047V8.422h1.05c-.001.133.023.265.071.389l3.68 9.198a5.2 5.2 0 002.085 2.495l6.723 4.201v5.621l-4.1 26.654-4.814 2.888a1.048 1.048 0 00-.508.898v2.093a1.047 1.047 0 001.047 1.047h9.422a1.046 1.046 0 001.047-1.047v-1.93L28.5 41.186l6.281 19.741v1.931a1.047 1.047 0 001.047 1.047h9.422a1.046 1.046 0 001.047-1.047v-2.093a1.047 1.047 0 00-.508-.898l-4.813-2.888-4.101-26.654v-5.62l6.723-4.202a5.2 5.2 0 002.085-2.495l3.68-9.198c.048-.124.072-.256.071-.39h1.05V9.47a1.047 1.047 0 001.047 1.047h4.188a1.047 1.047 0 001.047-1.047V2.14a1.047 1.047 0 00-1.047-1.047H51.53a1.047 1.047 0 00-1.047 1.047v1.046h-9.422V2.141a1.047 1.047 0 00-1.046-1.047h-4.188a1.047 1.047 0 00-1.047 1.047v7.328a1.047 1.047 0 001.047 1.047h4.188a1.047 1.047 0 001.047-1.047V8.422h1.046v.757l-2.768 4.614-6.654 1.663v-4.623a3.458 3.458 0 00-5.375-2.877l-2.533 1.689a1.046 1.046 0 00-.466.87v4.941l-6.654-1.663-2.768-4.614v-.757h1.046v1.047a1.047 1.047 0 001.047 1.047h4.188a1.047 1.047 0 001.047-1.047V2.14a1.047 1.047 0 00-1.047-1.047h-4.188a1.047 1.047 0 00-1.047 1.047v1.046H6.517V2.141a1.047 1.047 0 00-1.047-1.047zM4.422 8.422H2.328V3.187h2.094v5.235zm48.156-5.235h2.094v5.235h-2.094V3.187zm-13.61 5.235h-2.093V3.187h2.094v5.235zM18.032 3.187h2.094v5.235h-2.094V3.187zm-5.234 58.626v-.455l4.122-2.473 3.206 2.404v.523h-7.328zm7.824-2.769l-2.506-1.88 2.167-14.086 4.9 1.633-4.56 14.333zM28.5 36.688a1.047 1.047 0 00-.997.729l-1.686 5.298-5.212-1.737 1.465-9.525h12.86l1.465 9.525-5.212 1.737-1.686-5.298a1.046 1.046 0 00-.997-.73zm3.318 8.023l4.9-1.633 2.167 14.086-2.506 1.88-4.56-14.333zm12.385 16.647v.455h-7.328v-.524l3.206-2.404 4.122 2.473zm-8.93-38.12a1.046 1.046 0 00-.492.887v5.234H22.22v-5.234a1.047 1.047 0 00-.492-.888l-3.613-2.258 1.787-4.468 4.916 1.23a4.186 4.186 0 007.366 0l4.916-1.23 1.787 4.468-3.613 2.258zm-8.867-7.488v-2.094h4.188v2.094a2.093 2.093 0 11-4.188 0zm24.078-9.422h-1.538l-.261-1.047h1.8v1.047zm-9.422 0V5.281h1.047v1.047h-1.047zm-.792 9.39c.269-.067.5-.238.643-.476l3.141-5.235c.097-.162.15-.349.15-.538V5.28h2.322l.767 3.066-3.554 8.884a3.12 3.12 0 01-1.251 1.497l-1.798 1.124-1.541-3.853 1.12-.28zm-11.797-6.02a1.364 1.364 0 012.12 1.135v.73h-4.187v-.487l2.068-1.378zm-12.535-3.37H14.89V5.281h1.046v1.047zm-5.464-1.047h2.323V9.47c0 .19.051.376.149.538l3.14 5.235c.144.238.375.41.645.477l1.12.28-1.541 3.853-1.798-1.124a3.121 3.121 0 01-1.251-1.497L9.707 8.347l.767-3.066zm-2.159 0l-.261 1.047H6.516V5.281h1.8z" fill="#FF2625" stroke="#fff" stroke-width=".4"/></svg><svg fill="none" viewBox="0 0 48 48" id="bic" xmlns="http://www.w3.org/2000/svg"><path d="M46.233 46.28c-6.82.756-12.229-2.263-12.283-2.294a.795.795 0 00-.605-.077c-.086.023-8.664 2.323-15.574.79-4.307-.958-8.37-3.992-11.336-6.208-.399-.297-.776-.58-1.13-.838-.485-.354-1.255-.649-1.933-.909-.305-.116-.723-.276-.812-.332a.312.312 0 01-.12-.253V34.31c.038-1.463 6.173-23.98 7.125-26.845a.617.617 0 01.182-.132L21.89 1.787l3.926 5.11a.704.704 0 01-.043.88l-3.879 4.348c-.254.285-.681.316-.946.095l-1.569-1.446a.804.804 0 00-.69-.18.837.837 0 00-.579.441c-.131.258-1.319.575-2.53.584l-.395-.04a.798.798 0 00-.712 1.282c.337.435.6.785.748.986l.777 13.197c-.482 1.874-.922 2.406-1.032 2.513a.799.799 0 00.24 1.559c.905 0 1.674-1.19 2.291-3.51 6.346-4.749 11.885-.268 12.319.101 2.015 2.023 2.14 3.367 2.144 3.426a.798.798 0 001.596-.017c0-.184-.066-1.758-2.131-4.032 1.947-2.395 4.165-3.774 6.607-4.074 4.21-.519 7.75 2.313 7.785 2.341a.798.798 0 001.01-1.236c-.165-.134-4.083-3.286-8.974-2.69-2.859.346-5.425 1.892-7.638 4.598-1.795-1.22-6.943-3.984-12.7-.37l-.715-12.136a.793.793 0 00-.116-.37c.714-.085 1.564-.271 2.181-.677l1.028.947a2.287 2.287 0 003.191-.229l3.88-4.349a2.313 2.313 0 00.129-2.898L22.767.311a.798.798 0 00-.964-.239L9.094 5.877c-.133.059-.807.385-1.029 1.051C7.613 8.285.844 32.426.844 34.308v1.852c0 .594.267 1.144.732 1.508.232.182.58.32 1.225.567.528.202 1.25.477 1.561.706.351.256.724.535 1.118.83 3.082 2.301 7.303 5.453 11.946 6.485 6.608 1.469 14.365-.307 16.028-.726 1.11.574 5.184 2.47 10.517 2.47.787 0 1.602-.041 2.438-.134a.798.798 0 10-.176-1.586z" fill="#3A1212"/></svg><svg viewBox="0 0 24 24" id="facebook" xmlns="http://www.w3.org/2000/svg"><path d="M17.563 1.005L14.786 1c-3.12 0-5.137 2.125-5.137 5.414v2.497H6.857c-.242 0-.437.2-.437.448v3.617c0 .248.196.449.437.449h2.792v9.126c0 .248.195.449.437.449h3.643a.443.443 0 00.437-.449v-9.126h3.265c.241 0 .436-.2.436-.449l.002-3.617a.456.456 0 00-.128-.317.431.431 0 00-.31-.131h-3.265V6.794c0-1.017.236-1.533 1.525-1.533h1.871c.241 0 .437-.202.437-.45V1.454a.443.443 0 00-.436-.448z"/></svg><svg viewBox="0 0 48 48" id="house" xmlns="http://www.w3.org/2000/svg"><g clip-path="url(#anclip0)"><path d="M28.922 21.094c-1.957 0-3.657.891-4.922 2.58-1.266-1.689-2.965-2.58-4.922-2.58-3.655 0-6.328 3.004-6.328 6.69 0 4.766 4.619 7.76 10.335 12.659a1.402 1.402 0 001.83 0c5.723-4.905 10.335-7.895 10.335-12.659 0-3.683-2.67-6.69-6.328-6.69zM24 37.529c-5.15-4.351-8.438-6.697-8.438-9.745 0-2.21 1.512-3.878 3.516-3.878 2.606 0 3.529 3.06 3.57 3.198a1.407 1.407 0 002.706-.006c.009-.032.924-3.192 3.568-3.192 2.004 0 3.515 1.667 3.515 3.878 0 3.05-3.291 5.398-8.437 9.745z"/><path d="M46.593 45.188h-4.218V23.345l.024.017a1.406 1.406 0 001.944-.299l3.376-4.499a1.41 1.41 0 00-.302-1.984L24.83.272a1.406 1.406 0 00-1.656-.003l-9.111 6.579V4.22c0-.777-.63-1.407-1.407-1.407H7.031c-.776 0-1.406.63-1.406 1.407v8.72L.583 16.58a1.406 1.406 0 00-.301 1.984l3.375 4.499a1.406 1.406 0 001.944.299l.024-.017v21.843H1.406a1.406 1.406 0 100 2.813h45.187a1.406 1.406 0 000-2.813zM8.437 5.626h2.813v3.253l-2.813 2.03V5.626zM5.082 20.274l-1.69-2.252L24 3.142l20.61 14.88-1.69 2.252L24.822 7.298a1.406 1.406 0 00-1.645 0c-.319.23-17.694 12.688-18.096 12.976zm3.356 1.054C18.767 13.92 22.587 11.183 24 10.168c1.91 1.37 7.12 5.107 15.563 11.16v23.86H8.436v-23.86z"/></g><defs><clipPath id="anclip0"><path d="M0 0h48v48H0z"/></clipPath></defs></svg><svg viewBox="0 0 24 24" id="left-arrow" xmlns="http://www.w3.org/2000/svg"><path fill-rule="evenodd" clip-rule="evenodd" d="M9.207 17.207a1 1 0 01-1.414 0l-4.5-4.5a1 1 0 010-1.414l4.5-4.5a1 1 0 011.414 1.414L6.414 11H20a1 1 0 110 2H6.414l2.793 2.793a1 1 0 010 1.414z"/></svg><svg viewBox="0 0 20 20" id="linked" xmlns="http://www.w3.org/2000/svg"><path d="M18.328 18.333l.005-.001v-6.113c0-2.99-.644-5.293-4.14-5.293-1.68 0-2.808.922-3.269 1.796h-.048V7.205H7.56v11.127h3.451v-5.51c0-1.45.275-2.853 2.072-2.853 1.77 0 1.797 1.655 1.797 2.946v5.418h3.447zM1.941 7.206h3.456v11.127H1.94V7.206zM3.667 1.666a2.002 2.002 0 00-2.001 2.001c0 1.105.897 2.02 2.001 2.02 1.105 0 2.002-.915 2.002-2.02a2.003 2.003 0 00-2.002-2.001z"/></svg><svg viewBox="0 0 24 24" id="load-more" xmlns="http://www.w3.org/2000/svg"><path fill-rule="evenodd" clip-rule="evenodd" d="M2.1 2a1 1 0 011 1v4.436A9.999 9.999 0 0112 2c4.355 0 8.058 2.784 9.43 6.667a1 1 0 11-1.885.666A8.004 8.004 0 005.07 8H8.1a1 1 0 110 2h-6a1 1 0 01-1-1V3a1 1 0 011-1zM3.177 14.057a1 1 0 011.276.61A8.004 8.004 0 0018.928 16h-3.03a1 1 0 110-2h6a1 1 0 011 1v6a1 1 0 11-2 0v-4.436a9.999 9.999 0 01-8.9 5.436c-4.356 0-8.059-2.784-9.43-6.667a1 1 0 01.609-1.276z"/></svg><svg viewBox="0 0 24 24" id="mess" xmlns="http://www.w3.org/2000/svg"><path d="M12 2C6.478 2 2 6.145 2 11.259c0 2.913 1.454 5.512 3.726 7.21V22l3.405-1.869c.909.252 1.871.388 2.869.388 5.523 0 10-4.145 10-9.259C22 6.146 17.523 2 12 2zm.994 12.469l-2.546-2.716-4.97 2.716 5.467-5.803 2.609 2.716 4.906-2.716-5.466 5.803z"/></svg><svg fill="none" viewBox="0 0 20 20" id="mute" xmlns="http://www.w3.org/2000/svg"><path fill-rule="evenodd" clip-rule="evenodd" d="M12 15.583c.584.416 1.334.083 1.334-.667v-3.75l-3.084 3.083L12 15.583zM17.25 4.416a.805.805 0 00-1.166 0l-2.75 2.75V5.083c0-.667-.834-1.084-1.334-.667L9.667 6.333c-.333.166-.667.333-1.083.333H6.667C5.75 6.666 5 7.416 5 8.333v3.333c0 .917.75 1.667 1.667 1.667h.5l-2.75 2.75a.806.806 0 000 1.166.806.806 0 001.167 0L17.25 5.583a.805.805 0 000-1.167z" fill="#fff"/></svg><svg fill="none" viewBox="0 0 19 22" id="play" xmlns="http://www.w3.org/2000/svg"><path d="M18.5 10.134a1 1 0 010 1.732L2 21.392a1 1 0 01-1.5-.866V1.474A1 1 0 012 .608l16.5 9.526z" fill="#fff"/></svg><svg viewBox="0 0 16 17" id="reply" xmlns="http://www.w3.org/2000/svg"><path d="M.667 7.828l6.096-6.662v3.975h1.295c4.019 0 7.276 3.247 7.276 7.252v2.106l-.576-.628a10.344 10.344 0 00-7.629-3.355h-.366v3.974L.667 7.828z"/></svg><svg viewBox="0 0 24 24" id="right-arrow" xmlns="http://www.w3.org/2000/svg"><path fill-rule="evenodd" clip-rule="evenodd" d="M14.793 6.793a1 1 0 011.414 0l4.5 4.5a1 1 0 010 1.414l-4.5 4.5a1 1 0 01-1.414-1.414L17.586 13H4a1 1 0 110-2h13.586l-2.793-2.793a1 1 0 010-1.414z"/></svg><svg viewBox="0 0 53 50" id="services-1" xmlns="http://www.w3.org/2000/svg"><path d="M50.977 26.523c.84 0 1.523-.682 1.523-1.523V13.625c0-.841-.682-1.523-1.523-1.523H28.023V2.25c0-.841-.682-1.523-1.523-1.523H10.25c-.841 0-1.523.682-1.523 1.523v9.852H2.023c-.84 0-1.523.682-1.523 1.523V25c0 .841.682 1.523 1.523 1.523h6.704v8.329H2.023c-.84 0-1.523.682-1.523 1.523V47.75c0 .841.682 1.523 1.523 1.523h48.954c.84 0 1.523-.682 1.523-1.523V36.375c0-.841-.682-1.523-1.523-1.523h-6.704v-8.329h6.704zm-1.524-3.046H36.148v-8.329h13.305v8.329zm-16.351 0H19.898v-8.329h13.204v8.329zM11.773 3.773h13.204v8.329H11.773V3.773zM3.547 23.477v-8.329h13.305v8.329H3.547zm8.226 3.046h13.204v8.329H11.773v-8.329zM3.547 37.898h13.305v8.329H3.547v-8.329zm16.351 0h13.204v8.329H19.898v-8.329zm29.555 0v8.329H36.148v-8.329h13.305zm-8.226-3.046H28.023v-8.329h13.204v8.329z"/></svg><svg viewBox="0 0 53 52" id="services-2" xmlns="http://www.w3.org/2000/svg"><g clip-path="url(#axclip0)"><path d="M46.406 3.148a6.097 6.097 0 00-5.276 3.047H2.023C1.183 6.195.5 6.877.5 7.72v39.61c0 .84.682 1.523 1.523 1.523h44.383a6.1 6.1 0 006.094-6.094V9.242a6.1 6.1 0 00-6.094-6.094zm0 42.657H3.546V9.242h36.767v33.516a1.523 1.523 0 003.046 0 3.05 3.05 0 013.047-3.047 3.05 3.05 0 013.047 3.047 3.05 3.05 0 01-3.047 3.047zm3.047-8.323a6.057 6.057 0 00-3.047-.818c-1.109 0-2.15.298-3.047.818V9.242a3.05 3.05 0 013.047-3.047 3.05 3.05 0 013.047 3.047v28.24z"/><path d="M35.64 12.29H8.22c-.842 0-1.524.681-1.524 1.523v27.421c0 .842.682 1.524 1.524 1.524h15.234a1.523 1.523 0 001.524-1.524v-3.047a4.578 4.578 0 013.046-4.309v7.356c0 .842.683 1.524 1.524 1.524h6.094c.841 0 1.523-.682 1.523-1.524V13.812c0-.84-.682-1.523-1.523-1.523zm-1.523 27.42H31.07v-7.616c0-.842-.682-1.524-1.523-1.524-4.2 0-7.617 3.417-7.617 7.617v1.524H9.742v-9.14h6.094v4.57a1.524 1.524 0 003.047 0v-6.094c0-.841-.682-1.524-1.524-1.524H9.742V15.336h9.14v6.094h-4.57a1.523 1.523 0 000 3.047H26.5a1.523 1.523 0 000-3.047h-4.57v-6.094h12.187V39.71z"/></g><defs><clipPath id="axclip0"><path transform="translate(.5)" d="M0 0h52v52H0z"/></clipPath></defs></svg><svg viewBox="0 0 53 52" id="services-3" xmlns="http://www.w3.org/2000/svg"><path d="M49.75 30.95a4.572 4.572 0 00.286-5.005l-6.09-10.65c-1.054-1.825-3.276-2.658-5.258-2.128a4.579 4.579 0 00-2.176-4.954L25.958 2.12a4.574 4.574 0 00-4.695.076A4.572 4.572 0 0017.359 0H5.07C2.55 0 .5 2.05.5 4.57v42.86C.5 49.95 2.55 52 5.07 52h42.86c2.52 0 4.57-2.05 4.57-4.57V35.14a4.576 4.576 0 00-2.75-4.19zM18.883 47.43c0 .84-.684 1.523-1.524 1.523H5.07c-.84 0-1.523-.683-1.523-1.523V33.617h15.336V47.43zm0-16.86H3.547V18.281h15.336v12.29zm0-15.336H3.547V4.57c0-.84.683-1.523 1.523-1.523h12.29c.84 0 1.523.683 1.523 1.523v10.664zM21.93 6.05l.423-.734a1.526 1.526 0 012.082-.558l10.554 6.094c.728.42.978 1.354.557 2.083l-1.76 3.06a1.517 1.517 0 00-.118.203L21.93 36.603V6.05zm0 36.663L36.17 17.958l2.945-1.7c.746-.43 1.77-.17 2.188.555l6.09 10.65c.422.73.176 1.665-.561 2.09L21.93 43.972v-1.258zm27.523 4.717c0 .84-.683 1.523-1.523 1.523H21.668c.162-.458.253-.95.26-1.46l23.967-13.876h2.035c.84 0 1.523.684 1.523 1.524V47.43z"/></svg><svg viewBox="0 0 53 52" id="services-4" xmlns="http://www.w3.org/2000/svg"><path d="M43.36 4.57c0-2.52-2.05-4.57-4.57-4.57H8.32C5.8 0 3.75 2.05 3.75 4.57v9.14c0 2.521 2.05 4.571 4.57 4.571h30.47c2.52 0 4.57-2.05 4.57-4.57v-1.524h1.523c.84 0 1.523.684 1.523 1.524v6.094c0 .84-.683 1.523-1.523 1.523H26.602c-2.52 0-4.57 2.05-4.57 4.57v4.57h-1.524c-.842 0-1.524.683-1.524 1.524v6.011l-1.523 6.192C16.47 48.157 19.464 52 23.555 52c4.092 0 7.083-3.847 6.095-7.8l-1.525-6.197v-6.01c0-.842-.682-1.524-1.523-1.524h-1.524v-4.57c0-.84.684-1.524 1.524-1.524h18.28c2.52 0 4.571-2.05 4.571-4.57V13.71c0-2.52-2.05-4.57-4.57-4.57h-1.524V4.57zM25.077 33.516v3.148h-3.047v-3.148h3.047zm-1.523 15.437a3.234 3.234 0 01-3.137-4.024l1.284-5.218h3.705l1.285 5.223a3.234 3.234 0 01-3.137 4.02zM8.32 3.047h30.47c.839 0 1.523.683 1.523 1.523v1.524h-4.57c-1.481 0-3.375.554-5.567 1.196-2.961.868-6.317 1.85-9.668 1.85-3.267 0-5.57-.954-7.602-1.795-1.554-.643-3.02-1.251-4.586-1.251H6.797V4.57c0-.84.683-1.523 1.523-1.523zM40.312 13.71c0 .84-.683 1.523-1.523 1.523H8.32c-.84 0-1.523-.683-1.523-1.523V9.14H8.32c.96 0 2.045.45 3.42 1.019 2.18.903 4.895 2.027 8.768 2.027 3.788 0 7.523-1.094 10.525-1.972 1.885-.553 3.666-1.074 4.71-1.074h4.57v4.57z"/></svg><svg fill="none" viewBox="0 0 42 50" id="talia" xmlns="http://www.w3.org/2000/svg"><path fill-rule="evenodd" clip-rule="evenodd" d="M41.007 26.403c-.43-2.507-1.41-4.817-2.495-6.968l-.009-.017c-.447-.886-.912-1.744-1.364-2.578-1.473-2.72-2.864-5.288-2.972-7.624-.248-5.316 2.05-7.415 2.142-7.495a.964.964 0 00.294-1.079.98.98 0 00-.927-.642H6.406a.982.982 0 00-.93.64.957.957 0 00.29 1.074c.098.087 2.397 2.186 2.15 7.501-.109 2.337-1.5 4.905-2.973 7.625a99.592 99.592 0 00-1.364 2.578l-.009.017C2.416 21.722 1.383 24.189 1 26.881a15.219 15.219 0 00-.125 3.154c.119 1.804.427 3.845.915 6.066a.977.977 0 001.908-.42c-.468-2.125-.761-4.068-.873-5.774-.022-.33-.03-.656-.026-.98l13.884 10.67c.933.717 2.117 1.162 3.382 1.28v7.17H7.612A87.497 87.497 0 015.787 43.1a.976.976 0 00-1.852.621c1.11 3.31 2.085 5.592 2.126 5.687a.977.977 0 00.897.592h28.166c.39 0 .744-.233.897-.592.19-.44 4.629-10.882 5.186-19.373a15.383 15.383 0 00-.2-3.632zM9.867 9.306c.165-3.54-.696-5.92-1.51-7.352h25.369c-.815 1.431-1.675 3.812-1.51 7.352.129 2.784 1.624 5.543 3.206 8.464.33.608.66 1.22.983 1.837-3.55 2.603-9.214 4.14-15.364 4.14S9.227 22.21 5.677 19.608c.323-.617.654-1.229.983-1.837 1.583-2.921 3.077-5.68 3.207-8.464zM3.014 26.631c.326-1.833.986-3.572 1.78-5.256 3.894 2.724 9.85 4.326 16.247 4.326s12.354-1.602 16.247-4.326c.728 1.544 1.343 3.133 1.69 4.799L23.41 38.137c-1.47 1.129-4.005 1.088-5.537-.089L3.014 26.631zm36.244 3.276c-.462 7.039-3.843 15.807-4.787 18.14H22.018v-7.25c.97-.177 1.858-.555 2.581-1.111l14.67-11.272c.023.49.022.987-.011 1.493z" fill="#FF2625" fill-opacity=".2"/></svg><svg fill="none" viewBox="0 0 24 24" id="to-top" xmlns="http://www.w3.org/2000/svg"><path fill-rule="evenodd" clip-rule="evenodd" d="M4.293 15.707a1 1 0 010-1.414l7-7a1 1 0 011.414 0l7 7a1 1 0 01-1.414 1.414L12 9.414l-6.293 6.293a1 1 0 01-1.414 0z" fill="#fff"/></svg><svg fill="none" viewBox="0 0 26 22" id="tric" xmlns="http://www.w3.org/2000/svg"><path d="M.833 19.66l.407 1.218a.406.406 0 00.385.278h1.219a.406.406 0 00.385-.277l.314-.942h.633l.314.941a.406.406 0 00.385.278h1.219a.406.406 0 00.385-.277l.406-1.22a.405.405 0 00.021-.128v-1.625A.406.406 0 006.5 17.5H5.281v-1.219h1.625a.407.407 0 00.407-.406v-2.031a.406.406 0 00-.407-.406H5.688v-.407a.406.406 0 00-.12-.287l-.676-.676.35-3.505h1.413l2.325 4.65c.301.605.785 1.1 1.382 1.416l12.197 6.48a.406.406 0 00.546-.162l2.031-3.656a.405.405 0 00-.173-.56l-.813-.407a.407.407 0 00-.39.015l-1.794 1.076-8.623-6.664-1.857-5.198c.194-.317.296-.681.295-1.053V2.469a1.625 1.625 0 00-2.6-1.3l-1.3.975a.406.406 0 00-.162.325V4.5c0 .28.058.556.17.813H5.28a3.254 3.254 0 00-3.25 3.25v4.468c0 .108.043.211.12.287l.118.12H1.22a.406.406 0 00-.407.406v2.031a.406.406 0 00.407.406h1.625V17.5H1.219a.406.406 0 00-.407.406v1.625c0 .044.008.087.022.129zm1.718.684h-.633l-.136-.407h.904l-.135.407zm2.617 0l-.136-.407h.904l-.135.407h-.633zM6.5 7.75V6.125h2.031v-.001a2.026 2.026 0 002.324.079l1.33 3.722-3.224 1.432-1.397-2.794h1.78V7.75H6.5zm4.469-3.25a1.22 1.22 0 01-2.438 0v-.406h.406a.406.406 0 00.288-.12l.693-.693h1.05V4.5zM21.26 19.499l-7.237-3.845 1.412-2.259 6.062 4.684-.237 1.42zm2.726-2.348l.234.116-1.631 2.937-.572-.303.29-1.743 1.68-1.007zm-9.197-4.255l-1.485 2.376-2.56-1.36a2.425 2.425 0 01-1.037-1.063l-.382-.764 3.134-1.393.158.445a.406.406 0 00.135.184l2.037 1.575zM9.67 1.819a.813.813 0 011.3.65H9.75a.406.406 0 00-.287.119l-.694.693h-.238v-.61L9.67 1.82zM2.844 12.863v-4.3A2.44 2.44 0 015.28 6.124h.407V7.75h-.813a.406.406 0 00-.404.366l-.406 4.062a.406.406 0 00.116.328l.694.694v.238H3.418l-.574-.575zM1.625 14.25H6.5v1.219H1.625V14.25zm2.031 2.031h.813V17.5h-.813v-1.219zm-2.031 2.032h4.469v.812H1.625v-.813z" fill="#FF2625" fill-opacity=".5"/></svg><svg viewBox="0 0 24 24" id="twitter" xmlns="http://www.w3.org/2000/svg"><path d="M22.5 5.772a8.902 8.902 0 01-2.474.65 4.18 4.18 0 001.894-2.28 8.922 8.922 0 01-2.737 1 4.387 4.387 0 00-3.145-1.302c-2.379 0-4.308 1.847-4.308 4.124 0 .323.038.638.112.94-3.58-.173-6.754-1.815-8.879-4.31a3.962 3.962 0 00-.583 2.073c0 1.431.762 2.694 1.916 3.433a4.455 4.455 0 01-1.95-.518v.052c0 1.997 1.485 3.665 3.454 4.044-.36.093-.741.145-1.135.145a4.31 4.31 0 01-.81-.077c.548 1.64 2.138 2.832 4.023 2.865a8.89 8.89 0 01-5.35 1.763c-.348 0-.69-.02-1.028-.057a12.572 12.572 0 006.603 1.856c7.925 0 12.257-6.285 12.257-11.736l-.015-.534a8.412 8.412 0 002.155-2.13z"/></svg><svg viewBox="0 0 24 24" id="whats" xmlns="http://www.w3.org/2000/svg"><path d="M22 11.742c0 5.381-4.395 9.743-9.818 9.743a9.835 9.835 0 01-4.746-1.212L2 22l1.772-5.227a9.64 9.64 0 01-1.409-5.03C2.363 6.361 6.76 2 12.182 2 17.605 2 22 6.362 22 11.742zm-9.818-8.19c-4.552 0-8.255 3.674-8.255 8.19 0 1.793.584 3.452 1.573 4.803l-1.032 3.042 3.172-1.009a8.25 8.25 0 004.542 1.355c4.551 0 8.255-3.674 8.255-8.19 0-4.517-3.703-8.191-8.255-8.191zm4.958 10.434c-.06-.1-.221-.16-.462-.278-.24-.12-1.424-.698-1.644-.777-.22-.08-.382-.12-.542.12-.16.238-.621.776-.762.935-.14.16-.28.18-.522.06-.24-.119-1.015-.371-1.935-1.185-.715-.633-1.198-1.414-1.339-1.653-.14-.24-.014-.368.106-.487.108-.107.24-.279.361-.418.12-.14.16-.24.24-.399.081-.16.041-.298-.02-.418-.06-.12-.541-1.295-.742-1.773-.2-.478-.4-.398-.541-.398-.14 0-.3-.02-.461-.02-.16 0-.422.06-.642.299-.22.239-.842.816-.842 1.991 0 1.175.862 2.31.982 2.47.12.159 1.665 2.649 4.111 3.605 2.447.956 2.447.637 2.889.597.44-.04 1.423-.578 1.625-1.135.2-.558.2-1.036.14-1.136z"/></svg><svg viewBox="0 0 24 24" id="youtube" xmlns="http://www.w3.org/2000/svg"><path fill-rule="evenodd" clip-rule="evenodd" d="M21.39 4.114a3.007 3.007 0 012.116 2.115c.514 1.878.494 5.792.494 5.792s0 3.895-.494 5.773a3.007 3.007 0 01-2.116 2.115c-1.878.495-9.39.495-9.39.495s-7.493 0-9.39-.514a3.007 3.007 0 01-2.116-2.116C0 15.916 0 12.001 0 12.001S0 8.107.494 6.23A3.068 3.068 0 012.61 4.094C4.488 3.6 12 3.6 12 3.6s7.513 0 9.391.514zm-5.535 7.888L9.608 15.6V8.404l6.247 3.598z"/></svg></svg>